<svg width="22" height="36" fill="none" xmlns="http://www.w3.org/2000/svg"><path d="M6.94 33.825h8.118c4.624 0 6.909-2.374 6.869-7.121-.053-5.422-.08-9.36-.213-12.314-.385-8.685-2.79-11.234-10.708-11.234C3.086 3.156.669 5.705.283 14.39.151 17.345.124 21.282.071 26.704c-.04 4.747 2.245 7.121 6.869 7.121zm-.385-5.354c-1.143 0-1.874-.756-1.874-1.888v-6.96c0-1.146.731-1.901 1.874-1.901h8.902c1.129 0 1.86.755 1.86 1.901v6.96c0 1.133-.731 1.888-1.86 1.888H6.555zM4.68 22.914h12.636V21.31H4.68v1.605zM11.006 0C8.455 0 6.66 1.753 6.66 4.14h1.873c0-1.308 1.01-2.238 2.472-2.238 1.448 0 2.47.93 2.47 2.238h1.874c0-2.387-1.807-4.14-4.344-4.14z" fill="#FF9500"/></svg>