<svg width="25" height="30" fill="none" xmlns="http://www.w3.org/2000/svg"><path d="M12.495 29.159c.228 0 .584-.086.94-.27 8.097-4.241 10.7-6.361 10.7-11.47V6.69c0-1.465-.626-1.935-1.82-2.433-1.666-.683-6.988-2.618-8.638-3.187a3.74 3.74 0 00-1.181-.2c-.399 0-.797.086-1.167.2-1.665.54-6.987 2.519-8.652 3.187C1.496 4.74.855 5.224.855 6.69v10.73c0 5.108 2.747 6.986 10.701 11.468.37.2.712.27.94.27zM6.079 15.484c0-.171.085-.384.242-.57l8.04-10.088c.612-.769 1.636-.257 1.266.697l-2.647 7.115h4.967c.384 0 .668.27.668.655 0 .17-.085.384-.242.569l-8.04 10.089c-.611.768-1.622.256-1.266-.683l2.661-7.13h-4.98c-.37 0-.67-.27-.67-.654z" fill="#FF9500"/></svg>