<svg width="25" height="31" fill="none" xmlns="http://www.w3.org/2000/svg"><path d="M4.724 30.709h18.428c.626 0 1.138-.498 1.138-1.138 0-.498-.341-.94-.797-1.096-1.793-.712-2.163-3.031-.398-4.81.54-.54 1.195-1.238 1.195-2.66V4.681c0-2.96-1.465-4.468-4.411-4.468H4.767C1.82.214.355 1.708.355 4.682v21.63c0 2.931 1.48 4.397 4.37 4.397zm.128-2.291c-1.437 0-2.206-.768-2.206-2.12 0-1.281.911-2.106 2.334-2.106h14.6c.185 0 .356-.015.498-.043-.669 1.48-.555 3.045.2 4.269H4.851zm-.427-6.39a.823.823 0 01-.81-.825V3.231a.81.81 0 01.81-.811c.441 0 .826.356.826.811v17.972a.835.835 0 01-.826.826z" fill="#FF9500"/></svg>