<svg width="34" height="29" fill="none" xmlns="http://www.w3.org/2000/svg"><path d="M5.673 22.095l.398 1.61c.504 2.091 1.604 3.164 3.791 3.164h14.276c2.2 0 3.287-1.046 3.804-3.165l.398-1.609H5.673zm-.437-1.836H28.79l2.492-10.324-1.087-.63-6.111 4.504c-.45.322-.756.202-1.008-.16l-5.752-8.796-.636-.027-5.806 8.863c-.226.348-.49.456-.941.134L3.95 9.398l-1.272.335L5.236 20.26zm-2.068-7.643c1.75 0 3.155-1.435 3.155-3.218 0-1.743-1.405-3.19-3.155-3.19C1.418 6.207 0 7.641 0 9.397c0 1.783 1.432 3.218 3.168 3.218zm13.839-5.578c1.736 0 3.154-1.434 3.154-3.204 0-1.743-1.418-3.191-3.154-3.191-1.763 0-3.168 1.435-3.168 3.191 0 1.77 1.418 3.204 3.168 3.204zm13.825 5.578c1.736 0 3.168-1.435 3.168-3.218 0-1.756-1.418-3.19-3.168-3.19-1.736 0-3.155 1.447-3.155 3.19 0 1.783 1.419 3.218 3.155 3.218z" fill="#FF9500"/></svg>