<svg width="40" height="43" fill="none" xmlns="http://www.w3.org/2000/svg"><path d="M13.549 40.127c-3.724-1.051-7.623-1.582-11.405-2.068-.815-.102-1.571.467-1.63 1.268a1.454 1.454 0 001.223 1.637c3.666.467 7.448.968 10.997 1.98.756.22 1.571-.232 1.804-1.01a1.46 1.46 0 00-.99-1.807zm11.288-14.91C18.843 19.062 12.094 13.7 6.216 7.38c-.524-.59-1.455-.622-2.037-.071-.582.551-.64 1.479-.058 2.07C10 15.715 16.75 21.096 22.742 27.268a1.494 1.494 0 002.095.018c.523-.566.581-1.494 0-2.07zm11.23-23.674l.523 10.57c0 .806.7 1.43 1.514 1.39.814-.04 1.396-.727 1.396-1.534l-.523-10.585A1.495 1.495 0 0037.404.002c-.756.044-1.396.735-1.338 1.541z" fill-rule="evenodd" clip-rule="evenodd" fill="#262626"/></svg>