<svg width="35" height="33" fill="none" xmlns="http://www.w3.org/2000/svg"><path d="M28.263 29.001c.64 0 1.166-.512 1.166-1.138 0-.64-.526-1.167-1.166-1.167h-1.737v-9.434c0-5.194-3.998-9.207-9.192-9.207-5.18 0-9.178 4.013-9.178 9.207v9.434H6.39c-.626 0-1.124.527-1.124 1.167a1.13 1.13 0 001.124 1.138h21.872zm-9.734-11.697v9.392h-2.362v-9.392c0-.654.512-1.195 1.167-1.195.654 0 1.195.541 1.195 1.195zm-14.087.982c.668 0 1.252-.555 1.252-1.21 0-.682-.583-1.237-1.252-1.237H1.71c-.655 0-1.21.569-1.21 1.238 0 .64.555 1.21 1.21 1.21h2.732zm2.917-9.463c.47.47 1.252.484 1.722 0a1.215 1.215 0 000-1.721L7.16 5.166c-.456-.483-1.253-.483-1.736 0a1.228 1.228 0 000 1.722l1.935 1.935zm8.751-4.639c0 .67.555 1.239 1.224 1.239.683 0 1.238-.57 1.238-1.239V1.452c0-.668-.57-1.238-1.238-1.238-.669 0-1.224.57-1.224 1.238v2.732zm9.463 2.918a1.215 1.215 0 000 1.721c.498.484 1.252.47 1.722 0l1.95-1.935a1.23 1.23 0 000-1.722c-.499-.483-1.253-.483-1.722 0l-1.95 1.936zm7.371 11.184c.669 0 1.238-.569 1.238-1.21 0-.668-.569-1.237-1.238-1.237h-2.732c-.654 0-1.224.555-1.224 1.238 0 .654.57 1.21 1.224 1.21h2.732z" fill="#FF9500"/></svg>