<svg width="28" height="33" fill="none" xmlns="http://www.w3.org/2000/svg"><path d="M14.181 32.317c5.01 0 9.05-4.041 9.05-9.036a9.037 9.037 0 00-9.05-9.05c-4.994 0-9.036 4.041-9.036 9.05a9.03 9.03 0 009.036 9.036zm-2.575-4.383c-.541.398-1.11-.014-.897-.64l1.025-3.06-2.618-1.864c-.499-.37-.342-1.067.341-1.067l3.216.028.982-3.073c.199-.626.882-.626 1.081 0l.982 3.073 3.216-.028c.683 0 .825.712.342 1.053l-2.619 1.878 1.025 3.06c.213.626-.356 1.038-.897.64l-2.59-1.893-2.59 1.893zm-6.09-11.426a11.077 11.077 0 015.52-3.757L4.59 1.168.848 6.874c-.256.37-.27.783-.043 1.153l4.71 8.48zm5.478-8.61h6.39l4.34-7.684H6.653l4.34 7.684zm6.346 4.853a11.015 11.015 0 015.522 3.757l4.724-8.481c.213-.37.2-.783-.057-1.153l-3.742-5.706L17.34 12.75z" fill="#FF9500"/></svg>