<svg width="33" height="23" fill="none" xmlns="http://www.w3.org/2000/svg"><path d="M11.797 19.462c4.818-1.326 6.88-5.135 5.522-10.27l-1.828-6.98C14.993.338 13.781-.34 11.914.158L2.228 2.781C.352 3.299-.342 4.496.156 6.41l1.818 6.97c1.34 5.124 5.004 7.398 9.823 6.082zm-.919-3.57c-2.043.539-4.027-.17-5.072-1.864-.206-.31-.03-.619.361-.589 1.3.11 2.844-.12 3.959-.428 1.094-.29 2.521-.868 3.606-1.636.323-.239.645-.07.626.34-.069 1.994-1.427 3.599-3.48 4.177zm-4.926-6.55c-.733.209-.83.707-1.143.757-.147.03-.323-.14-.41-.429-.235-.847.292-1.754 1.133-1.964.85-.21 1.72.3 1.935 1.117.088.299.01.528-.146.588-.362.13-.704-.25-1.369-.07zm5.962-1.646c-.733.22-.83.708-1.143.748-.147.03-.323-.14-.41-.419-.235-.837.292-1.755 1.133-1.964.86-.23 1.72.29 1.935 1.117.088.309.01.528-.146.588-.352.13-.704-.26-1.369-.07zm18.844-2.333l-9.676-2.642c-1.72-.469-2.932.05-3.43 1.605l-.118.429 1.075 4.088c1.075 4.078.196 7.528-2.306 9.761.957 1.616 2.658 2.822 4.906 3.43 4.799 1.306 8.445-.967 9.793-6.092l1.848-6.96c.488-1.884-.215-3.11-2.092-3.619zm-9.852 6.042c-.674-.17-1.075-.867-.89-1.575.186-.688.87-1.097 1.545-.907a1.31 1.31 0 01.9 1.585 1.253 1.253 0 01-1.555.897zm5.737 1.566c-.664-.18-1.065-.888-.88-1.586a1.233 1.233 0 011.535-.897c.684.17 1.075.877.9 1.575-.186.688-.87 1.097-1.555.908zm-4.114 3.828c-1.017-.289-1.994-.299-3.245-.02-.391.09-.626-.239-.42-.568.84-1.346 2.54-1.904 4.192-1.436 1.71.44 2.874 1.775 2.932 3.37.02.4-.342.569-.635.3-.967-.898-1.798-1.376-2.825-1.646z" fill="#FF9500"/></svg>